<svg width="1200" height="1200" viewBox="0 0 1200 1200" fill="none" xmlns="http://www.w3.org/2000/svg">
<g filter="url(#filter0_d_728_6379)">
<path fill-rule="evenodd" clip-rule="evenodd" d="M648.973 245.555C626.016 248.134 625.429 362.944 625.66 377.512C625.89 392.08 636.384 568.546 636.482 571.897C651.849 559.363 663.53 548.379 672.474 538.029C678.255 527.047 693.085 503.101 693.636 501.904C691.137 477.091 688.428 451.218 687.911 442.94C685.768 408.586 684.86 370.677 681.586 341.599C678.304 312.52 671.923 242.975 648.973 245.555Z" fill="#F6F6F6"/>
<path d="M648.476 241.93C648.023 241.992 648.204 241.993 648.016 241.996C647.653 242.001 647.296 242.12 646.947 242.215C646.249 242.4 645.586 242.665 644.937 242.979C641.767 244.52 639.421 247.374 637.633 250.341C636.991 251.4 636.419 252.503 635.888 253.618C635.308 254.815 634.778 256.03 634.296 257.266C631.482 264.414 629.793 271.994 628.382 279.526C626.399 290.097 625.101 300.822 624.123 311.53C622.908 324.924 622.119 338.349 621.659 351.791C621.372 360.219 621.177 368.654 621.247 377.087C621.295 383.41 621.687 389.737 622.008 396.049C622.538 406.48 623.146 416.904 623.732 427.332C625.331 455.894 626.972 484.45 628.641 513.009C629.555 528.649 630.498 544.292 631.412 559.933C631.622 563.472 631.831 567.01 632.02 570.55C632.048 570.95 631.985 571.739 632.09 572.013C632.418 572.892 632.348 574.056 633.067 574.656C634.184 575.584 635.72 575.871 637.131 576.208C637.508 576.299 637.892 576.008 638.262 575.88C638.408 575.83 638.541 575.755 638.681 575.683C639.56 575.207 640.398 574.372 641.166 573.739C641.48 573.48 641.788 573.212 642.102 572.952C646.256 569.507 650.376 565.988 654.39 562.38C659.662 557.637 664.8 552.736 669.681 547.59C671.154 546.041 672.606 544.467 674.024 542.871C674.701 542.112 675.476 541.346 676.055 540.512C676.453 539.933 676.747 539.296 677.082 538.677C677.501 537.898 677.913 537.113 678.345 536.34C679.686 533.928 681.061 531.538 682.444 529.152C686.668 521.898 691.039 514.72 695.361 507.526C695.835 506.745 696.296 505.973 696.757 505.188C696.959 504.855 697.309 504.429 697.413 504.052C697.623 503.3 697.853 502.554 697.958 501.78C698.007 501.422 697.909 501.049 697.874 500.689C697.846 500.429 697.811 500.182 697.783 499.924C697.707 499.146 697.623 498.363 697.546 497.586C697.232 494.489 696.925 491.399 696.603 488.302C695.242 474.905 693.797 461.501 692.638 448.085C692.044 441.232 691.744 434.351 691.346 427.485C690.634 415.015 689.943 402.554 689.209 390.086C688.476 377.568 687.659 365.042 686.507 352.555C685.837 345.325 684.992 338.118 684.147 330.906C682.723 318.694 681.145 306.497 678.911 294.403C678.241 290.773 677.501 287.146 676.684 283.545C675.343 277.625 673.793 271.733 671.775 266.004C670.281 261.749 668.536 257.551 666.232 253.661C663.718 249.406 660.36 245.239 655.696 243.263C654.586 242.792 654.223 242.907 650.871 242.499C650.18 242.063 649.356 241.81 648.476 241.93ZM650.306 248.899C650.927 248.895 651.66 248.971 652.163 249.117C654.383 249.767 656.192 251.417 657.637 253.159C659.878 255.853 661.519 259.027 662.922 262.224C664.905 266.775 666.399 271.526 667.698 276.315C669.541 283.128 670.938 290.048 672.125 297.002C673.695 306.171 674.91 315.396 675.965 324.637C676.907 332.88 677.815 341.146 678.562 349.409C679.351 358.097 679.923 366.805 680.398 375.515C681.187 390.045 681.725 404.58 682.36 419.118C682.73 427.536 683.086 435.966 683.687 444.371C684.071 449.688 684.594 454.992 685.111 460.296C686.019 469.667 686.975 479.045 687.925 488.411C688.239 491.503 688.553 494.582 688.86 497.674C688.965 498.71 689.063 499.762 689.168 500.798C689.174 500.849 689.181 500.898 689.188 500.95C689.154 501.01 689.112 501.066 689.077 501.125C688.581 501.963 688.078 502.802 687.576 503.637C686.033 506.196 684.49 508.767 682.947 511.327C678.646 518.478 674.338 525.627 670.295 532.932C669.862 533.71 669.408 534.475 669.003 535.269C668.962 535.355 668.955 535.453 668.899 535.531C668.661 535.863 668.361 536.144 668.089 536.449C667.523 537.09 666.944 537.717 666.364 538.349C664.765 540.111 663.118 541.845 661.456 543.549C656.799 548.32 651.919 552.873 646.926 557.289C644.769 559.196 642.577 561.046 640.377 562.904C640.328 561.995 640.28 561.082 640.231 560.173C639.798 552.609 639.372 545.039 638.939 537.475C637.633 514.728 636.314 491.98 635.015 469.231C633.821 448.343 632.627 427.45 631.545 406.557C631.224 400.426 630.882 394.294 630.561 388.163C630.365 384.432 630.149 380.715 630.079 376.978C629.925 368.135 630.051 359.278 630.274 350.436C630.596 338.007 631.168 325.585 632.153 313.19C633.207 299.936 634.631 286.614 637.459 273.606C638.374 269.4 639.435 265.212 640.88 261.154C641.837 258.474 642.947 255.804 644.483 253.4C645.272 252.162 646.193 250.936 647.38 250.057C647.736 249.799 647.38 250.055 649.454 249.183C649.761 249.141 650.033 249.01 650.306 248.899Z" fill="#F6F6F6"/>
<path fill-rule="evenodd" clip-rule="evenodd" d="M701.184 602.551C700.527 603.499 668.85 641.474 646.193 659.778C648.749 686.28 654.865 805.001 655.472 817.912C656.485 839.135 657.497 923.559 658.6 947.74C659.459 966.635 661.791 1001.11 663.027 1063.8C790.211 1061.17 912.808 1058.29 918.54 1058.55C921.982 1058.69 976.037 1053.29 977.084 1027.11C978.131 1000.92 904.36 1006.19 859.905 1005.14C815.451 1004.09 722.96 1009.83 722.437 1009.31C721.913 1008.78 721.697 973.639 717.228 915.122C712.76 856.598 708.633 772.257 706.574 727.853C704.507 683.446 702.336 631.402 701.184 602.551Z" fill="#F6F6F6"/>
<path d="M700.625 598.927C699.696 599.069 698.837 599.576 698.244 600.39C698.167 600.367 698.139 600.505 698.09 600.565C697.971 600.713 697.86 600.856 697.741 601.002C697.154 601.715 696.547 602.415 695.954 603.121C693.447 606.076 690.92 608.997 688.357 611.903C677.856 623.834 667.027 635.556 655.458 646.462C652.56 649.192 649.614 651.887 646.577 654.457C646.109 654.854 645.634 655.246 645.16 655.637C644.475 656.203 643.707 656.733 643.191 657.472C642.611 658.314 642.353 659.273 642.367 660.29C642.374 661.159 642.513 661.992 642.583 662.868C642.674 663.943 642.765 665.003 642.842 666.079C643.1 669.433 643.337 672.793 643.568 676.15C644.294 687.06 644.929 697.98 645.551 708.896C647.582 744.575 649.419 780.282 651.094 815.983C651.506 824.805 651.674 833.634 651.855 842.456C652.093 853.906 652.288 865.35 652.491 876.8C652.868 898.764 653.126 920.728 653.908 942.686C654.25 952.318 654.858 961.937 655.346 971.563C656.603 996.1 657.539 1020.66 658.16 1045.23C658.209 1047.03 658.251 1048.82 658.293 1050.62C658.328 1052.16 658.37 1053.73 658.404 1055.27C658.432 1056.54 658.439 1057.79 658.467 1059.06C658.481 1059.69 658.495 1060.34 658.509 1060.98C658.537 1062.11 658.446 1063.68 658.795 1064.8C659.193 1066.07 660.08 1067.14 661.281 1067.72C662.056 1068.11 663.11 1068.23 664.165 1068.25C665.212 1068.27 666.273 1068.18 667.083 1068.17C667.746 1068.15 668.41 1068.14 669.073 1068.12C673.36 1068.03 677.654 1067.95 681.941 1067.86C698.788 1067.5 715.629 1067.15 732.476 1066.79C774.99 1065.87 817.496 1064.91 860.01 1063.99C873.61 1063.7 887.225 1063.42 900.826 1063.16C904.925 1063.08 909.037 1063 913.135 1062.94C915.139 1062.92 917.157 1062.99 919.161 1062.92C920.955 1062.87 922.743 1062.66 924.523 1062.44C935.387 1061.11 946.3 1058.66 956.445 1054.51C962.896 1051.88 969.278 1048.42 974.165 1043.37C978.375 1039.01 981.217 1033.4 981.426 1027.27C981.51 1024.84 981.119 1022.39 980.163 1020.15C979.499 1018.59 978.592 1017.16 977.502 1015.87C973.502 1011.15 967.462 1008.55 961.681 1006.78C952.612 1004 943.074 1002.93 933.642 1002.19C914.546 1000.7 895.338 1001 876.194 1000.97C867.292 1000.95 858.397 1000.71 849.488 1000.69C837.974 1000.66 826.44 1000.9 814.927 1001.23C794.435 1001.82 773.949 1002.69 753.464 1003.66C746.734 1003.97 739.996 1004.32 733.258 1004.64C730.968 1004.75 728.685 1004.85 726.388 1004.94C726.367 1004.45 726.346 1003.95 726.325 1003.46C726.186 1000.22 726.06 996.995 725.927 993.758C725.543 984.244 725.103 974.737 724.58 965.23C722.988 936.338 720.488 907.502 718.554 878.632C713.835 808.125 710.469 737.523 707.32 666.931C706.601 650.829 705.889 634.734 705.205 618.631C705.037 614.794 704.884 610.956 704.723 607.119C704.681 606.163 704.632 605.212 704.59 604.257C704.59 604.177 704.569 603.822 704.569 603.776C705.1 602.292 704.681 600.585 703.348 599.604C702.538 599.007 701.546 598.785 700.625 598.927ZM698.202 611.794C698.223 612.354 698.244 612.916 698.265 613.476C698.635 622.986 699.019 632.496 699.396 642.006C701.043 683.007 702.782 724.007 704.723 764.994C706.545 803.4 708.5 841.792 710.895 880.163C712.389 904.042 714.295 927.887 715.608 951.773C716.446 966.873 717.06 981.986 717.577 997.1C717.689 1000.55 717.772 1004.01 717.947 1007.46C717.996 1008.39 717.982 1009.42 718.247 1010.32C718.317 1010.53 718.345 1010.75 718.47 1010.93C718.938 1011.6 719.378 1012.35 720.021 1012.85C720.516 1013.24 721.186 1013.35 721.787 1013.55C721.927 1013.6 722.436 1013.61 722.639 1013.62C723.26 1013.63 723.889 1013.63 724.51 1013.62C727.91 1013.53 731.324 1013.36 734.725 1013.2C747.516 1012.6 760.307 1011.97 773.105 1011.41C795.258 1010.44 817.412 1009.6 839.587 1009.37C851.261 1009.26 862.949 1009.61 874.623 1009.64C888.37 1009.68 902.118 1009.58 915.865 1009.97C924.453 1010.21 933.048 1010.67 941.587 1011.7C947.836 1012.44 954.141 1013.46 960.131 1015.43C961.067 1015.74 961.996 1016.04 962.903 1016.41C967.476 1018.25 972.943 1021.28 972.72 1026.94C972.441 1034.21 966.583 1039.29 960.767 1042.71C953.82 1046.8 945.944 1049.27 938.138 1051.1C934.242 1052.02 930.318 1052.78 926.359 1053.35C923.999 1053.69 921.605 1054.01 919.224 1054.14C918.47 1054.18 917.709 1054.14 916.955 1054.14C915.635 1054.14 914.322 1054.17 913.003 1054.18C908.89 1054.23 904.792 1054.3 900.68 1054.38C887.065 1054.62 873.45 1054.9 859.835 1055.19C817.636 1056.06 775.437 1056.98 733.237 1057.88C717.716 1058.2 702.202 1058.53 686.682 1058.86C681.403 1058.97 676.132 1059.08 670.86 1059.19C670.46 1059.2 670.061 1059.2 669.662 1059.21C668.398 1059.23 667.351 1058.22 667.327 1056.96V1056.96C667.237 1052.67 667.153 1048.4 667.041 1044.11C666.727 1031.77 666.336 1019.41 665.861 1007.06C665.414 995.394 664.905 983.734 664.318 972.067C663.878 963.37 663.355 954.667 663.006 945.964C662.314 928.705 662.063 911.41 661.693 894.144C661.393 879.743 661.099 865.357 660.757 850.956C660.52 840.876 660.297 830.796 659.885 820.722C659.375 808.272 658.586 795.829 657.902 783.386C656.687 761.527 655.437 739.685 654.104 717.83C653.259 704.011 652.414 690.179 651.422 676.368C651.157 672.734 650.892 669.099 650.592 665.467C650.48 664.126 650.361 662.789 650.242 661.448C650.438 661.284 650.634 661.133 650.829 660.968C651.834 660.117 652.833 659.24 653.817 658.368C656.973 655.587 660.031 652.703 663.047 649.783C673.053 640.107 682.464 629.826 691.653 619.374C693.859 616.867 696.03 614.332 698.202 611.794Z" fill="#F6F6F6"/>
<path fill-rule="evenodd" clip-rule="evenodd" d="M253.367 264.484C261.628 245.823 236.568 267.042 227.317 278.31C218.065 289.578 210.604 303.836 207.559 318.12C204.515 332.403 196.613 353.394 211.225 355.989C225.838 358.583 226.698 324.239 232.615 307.064C238.848 288.976 245.106 283.147 253.367 264.484Z" fill="#F6F6F6"/>
<path d="M252.988 256.61C252.029 256.733 251.003 257.177 250.327 257.506C249.974 257.678 249.622 257.861 249.28 258.052C248.917 258.254 248.528 258.498 248.188 258.707C245.492 260.369 242.975 262.354 240.552 264.387C237.507 266.942 234.587 269.656 231.802 272.492C222.183 282.289 214.701 294.332 210.028 307.248C209.178 309.595 208.422 311.979 207.78 314.392C207.222 316.487 206.787 318.597 206.275 320.705C205.478 323.983 204.598 327.25 203.831 330.535C203.442 332.201 203.067 333.876 202.761 335.56C202.584 336.54 202.441 337.522 202.303 338.509C201.575 343.736 201.207 350.618 205.642 354.412C206.255 354.937 206.926 355.366 207.649 355.722C208.728 356.256 209.889 356.596 211.075 356.793C211.862 356.924 212.679 356.975 213.475 356.902C218.863 356.412 221.824 350.962 223.599 346.482C223.903 345.715 224.184 344.948 224.45 344.166C228.144 333.287 229.319 321.756 232.413 310.722C233.234 307.795 234.292 304.933 235.425 302.114C236.73 298.864 238.183 295.671 239.766 292.546C242.31 287.525 245.135 282.662 247.774 277.692C249.254 274.902 250.656 272.069 252.007 269.215C252.513 268.145 252.008 269.212 254.036 264.781C254.147 264.532 254.074 264.288 253.927 264.082C253.929 264.073 253.946 264.069 253.949 264.06C254.096 263.537 254.423 263.016 254.625 262.509C255.068 261.393 255.496 260.205 255.519 258.992C255.528 258.541 255.469 258.073 255.279 257.659C254.837 256.694 253.948 256.487 252.988 256.61ZM253.12 257.616C253.747 257.534 254.301 257.677 254.451 258.358C254.494 258.558 254.519 258.766 254.516 258.97C254.51 259.365 254.431 259.76 254.363 260.15C254.268 260.691 254.128 261.218 253.97 261.744C253.819 262.25 253.665 262.664 253.25 263.797C253.013 263.836 252.789 263.955 252.683 264.191C250.167 269.611 251.047 267.813 250.174 269.608C248.97 272.083 247.698 274.524 246.356 276.927C243.603 281.856 240.681 286.687 238.108 291.716C235.447 296.918 233.195 302.316 231.41 307.881C228.184 317.941 227.154 328.541 224.428 338.727C224.092 339.98 223.713 341.228 223.315 342.463C222.945 343.611 222.561 344.749 222.115 345.871C220.611 349.65 217.99 354.952 213.322 355.308C212.519 355.369 211.728 355.26 210.944 355.089C210.067 354.898 209.195 354.618 208.391 354.215C202.845 351.439 203.182 343.927 203.853 338.705C203.976 337.74 204.119 336.78 204.289 335.822C204.524 334.496 204.788 333.182 205.075 331.868C205.438 330.197 205.835 328.528 206.231 326.865C206.769 324.606 207.319 322.359 207.823 320.093C208.626 316.492 209.436 312.934 210.616 309.433C213.308 301.447 217.163 293.863 221.81 286.844C224.595 282.637 227.661 278.628 231.104 274.939C234.3 271.515 237.703 268.27 241.272 265.239C243.642 263.226 246.092 261.252 248.734 259.603C249.06 259.4 249.455 259.167 249.803 258.97C250.128 258.786 250.451 258.611 250.785 258.445C250.99 258.344 251.186 258.253 251.396 258.161C251.788 257.99 252.492 257.696 253.12 257.616Z" fill="#F6F6F6"/>
<path fill-rule="evenodd" clip-rule="evenodd" d="M571.319 150.58C558.123 172.208 554.003 173.144 542.986 196.254C531.975 219.365 531.528 247.476 512.83 242.855C494.131 238.234 517.631 163.096 549.248 135.304C580.87 107.513 630.77 93.752 620.73 104.582C610.697 115.411 575.054 148.031 571.437 151.382" fill="#F6F6F6"/>
<path d="M619.983 100.045C618.259 99.8894 616.499 100.163 614.81 100.46C612.324 100.896 609.894 101.536 607.478 102.252C599.673 104.56 592.09 107.693 584.745 111.164C576.164 115.216 567.891 120.038 560.134 125.495C555.03 129.082 550.066 132.969 545.625 137.357C537.763 145.115 531.403 154.536 526.028 164.139C521.213 172.741 516.953 181.702 513.679 191.009C511.483 197.25 509.629 203.637 508.115 210.08C506.738 215.94 505.675 221.981 505.606 228.015C505.594 229.004 505.613 229.977 505.671 230.964C505.907 234.906 506.827 240.049 510.362 242.433C511.732 243.356 513.393 243.709 515.01 243.897C516.232 244.038 517.46 244.026 518.675 243.831C525.882 242.674 529.5 235.099 531.877 228.998C533.407 225.066 534.649 221.029 535.913 217.005C537.624 211.563 539.355 206.122 541.52 200.839C542.783 197.752 544.222 194.739 545.709 191.752C547.845 187.457 550.128 183.229 552.649 179.147C555.197 175.01 558.039 171.065 560.832 167.089C563.443 163.356 566.005 159.582 568.442 155.729C569.085 154.716 569.706 153.699 570.32 152.671C570.579 152.233 570.781 151.751 571.109 151.36C571.214 151.234 571.102 151.375 571.5 150.704C571.563 150.601 571.535 150.462 571.43 150.399C571.333 150.334 571.193 150.36 571.13 150.464C571.242 150.88 571.361 150.888 571.235 150.879C571.039 150.865 570.851 150.986 570.711 151.119C570.523 151.298 570.439 151.556 570.299 151.774C570.027 152.195 569.762 152.622 569.489 153.042C568.735 154.216 567.981 155.391 567.22 156.559C564.637 160.524 561.928 164.404 559.17 168.246C556.698 171.692 554.213 175.119 551.951 178.71C549.381 182.791 547.056 187.035 544.878 191.337C543.363 194.333 541.89 197.35 540.584 200.447C538.161 206.188 536.234 212.112 534.3 218.032C533.016 221.951 531.766 225.881 530.196 229.697C527.877 235.335 524.424 242.171 517.585 242.695C516.416 242.785 515.245 242.685 514.094 242.476C512.449 242.179 511.004 241.622 509.86 240.357C507.059 237.26 506.742 231.967 506.763 228.015C506.786 223.384 507.433 218.765 508.334 214.23C509.235 209.691 510.394 205.177 511.825 200.774C512.364 199.113 513.011 197.497 513.613 195.859C515.681 190.24 517.902 184.687 520.377 179.235C523.984 171.291 528.088 163.612 532.876 156.318C537.009 150.029 541.624 144.018 546.994 138.733C550.121 135.655 553.564 132.929 557.055 130.279C564.295 124.783 572.08 119.964 580.116 115.73C589.751 110.655 599.791 106.084 610.334 103.256C612.931 102.561 615.605 101.918 618.301 101.771C619.138 101.725 620.318 101.617 621.072 102.099C621.505 102.376 620.542 103.496 620.374 103.693C619.075 105.206 617.63 106.586 616.227 107.997C610.208 114.055 604.001 119.938 597.808 125.823C594.541 128.931 591.308 132.093 588.034 135.194C585.339 137.754 582.588 140.246 579.879 142.797C579.215 143.419 578.566 144.044 577.91 144.675C576.185 146.344 574.53 148.107 572.827 149.809C572.478 150.164 572.136 150.524 571.78 150.879C571.731 150.932 571.661 150.979 571.605 151.032C571.584 151.057 571.563 151.087 571.542 151.119C571.591 151.171 571.577 151.319 571.654 151.36C571.654 151.361 572.324 150.785 572.373 150.748C573.036 150.183 573.707 149.625 574.377 149.066C575.48 148.149 576.604 147.245 577.693 146.313C579.655 144.641 581.54 142.883 583.432 141.136C594.192 131.217 605.063 121.442 615.487 111.164C616.136 110.522 616.799 109.868 617.449 109.22C618.545 108.117 619.627 107.009 620.702 105.878C621.401 105.137 622.155 104.385 622.594 103.453C622.748 103.137 622.874 102.8 622.902 102.448C623.041 100.778 621.338 100.168 619.983 100.045ZM571.542 151.119C571.535 151.11 571.535 151.075 571.521 151.075C571.493 151.076 571.535 151.14 571.521 151.141C571.528 151.135 571.535 151.129 571.542 151.119ZM571.521 151.141C571.507 151.154 571.493 151.193 571.479 151.185C571.361 151.136 571.486 151.175 571.368 151.294C571.319 151.338 571.305 151.421 571.347 151.469C571.389 151.517 571.472 151.513 571.521 151.469C571.514 151.147 571.465 151.151 571.521 151.141Z" fill="#F6F6F6"/>
<path fill-rule="evenodd" clip-rule="evenodd" d="M472.757 629.438C482.114 637.053 456.871 663.203 429.728 682.665C402.586 702.128 377.635 719.745 370.204 709.016C362.772 698.287 396.03 686.807 419.469 668.284C442.907 649.76 463.399 621.822 472.757 629.438Z" fill="#F6F6F6" stroke="#F6F6F6" stroke-width="0.00136226" stroke-miterlimit="10" stroke-linecap="round" stroke-linejoin="round"/>
<path fill-rule="evenodd" clip-rule="evenodd" d="M786.35 490.466C771.583 516.373 749.527 556.014 736.763 547.107C724 538.201 750.609 516.717 767.645 483.778C784.681 450.839 795.259 412.303 806.164 415.473C817.07 418.643 801.116 464.559 786.35 490.466Z" fill="#F6F6F6" stroke="#F6F6F6" stroke-width="0.00136226" stroke-miterlimit="10" stroke-linecap="round" stroke-linejoin="round"/>
<path fill-rule="evenodd" clip-rule="evenodd" d="M323.86 1078.62C326.73 1066.56 285.413 1065.12 265.616 1039.85C245.819 1014.56 248.975 972.626 237.212 972.912C225.448 973.199 227.889 1032.95 246.106 1057.94C264.323 1082.93 320.991 1090.69 323.86 1078.62Z" fill="#F6F6F6" stroke="#F6F6F6" stroke-width="0.00136226" stroke-miterlimit="10" stroke-linecap="round" stroke-linejoin="round"/>
<path fill-rule="evenodd" clip-rule="evenodd" d="M999.901 1082.33C1002.64 1081.94 1017.21 1065.92 1021.87 1050.06C1026.54 1034.2 1029.12 1018 1021.98 1017.5C1018.61 1017.26 1009.48 1042.45 990.029 1062.81C970.584 1083.17 949.673 1088.95 946.524 1089.91C942.544 1091.1 937.776 1091.18 937.692 1096.01C937.552 1104.21 978.055 1097.92 986.231 1093.62C993.925 1089.58 1000.09 1082.47 1005.54 1075.97" fill="#F6F6F6"/>
<path d="M999.901 1082.33C1002.64 1081.94 1017.21 1065.92 1021.87 1050.06C1026.54 1034.2 1029.12 1018 1021.98 1017.5C1018.61 1017.26 1009.48 1042.45 990.029 1062.81C970.584 1083.17 949.673 1088.95 946.524 1089.91C942.544 1091.1 937.776 1091.18 937.692 1096.01C937.552 1104.21 978.055 1097.92 986.231 1093.62C993.925 1089.58 1000.09 1082.47 1005.54 1075.97" stroke="#F6F6F6" stroke-width="0.00136226" stroke-miterlimit="10" stroke-linecap="round" stroke-linejoin="round"/>
<path fill-rule="evenodd" clip-rule="evenodd" d="M335.036 754.201C332.926 716.342 331.988 690.516 330.67 666.521C329.548 646.115 327.936 610.421 325.338 590.177C322.799 570.383 323.353 523.661 322.403 503.599C321.358 481.539 318.2 439.84 316.814 417.865C316.233 408.663 316.427 335.191 313.271 323.042C310.657 312.984 301.546 292.582 285.902 293.845C270.257 295.108 261.176 308.346 261.248 340.811C261.32 373.277 258.967 433.347 259.871 480.029C260.276 500.928 260.405 518.846 261.681 539.762C262.648 555.612 262.93 576.041 263.191 603.329C263.453 630.617 263.767 651.547 264.502 669.188C265.865 701.907 266 700.7 266.86 733.472C268.02 777.654 273.14 826.916 277.871 862.022C282.601 897.128 283.973 935.29 295.959 979.875C297.889 987.054 307.771 1030.42 329.353 1025.01C350.935 1019.61 349.389 979.595 349.389 960.371C349.389 941.148 349.287 916.115 346.98 881.211C344.673 846.307 340.188 812.403 335.686 757.206" fill="#F6F6F6"/>
<path d="M335.036 754.201C332.926 716.342 331.988 690.516 330.67 666.521C329.548 646.115 327.936 610.421 325.338 590.177C322.799 570.383 323.353 523.661 322.403 503.599C321.358 481.539 318.2 439.84 316.814 417.865C316.233 408.663 316.427 335.191 313.271 323.042C310.657 312.984 301.546 292.582 285.902 293.845C270.257 295.108 261.176 308.346 261.248 340.811C261.32 373.277 258.967 433.347 259.871 480.029C260.276 500.928 260.405 518.846 261.681 539.762C262.648 555.612 262.93 576.041 263.191 603.329C263.453 630.617 263.767 651.547 264.502 669.188C265.865 701.907 266 700.7 266.86 733.472C268.02 777.654 273.14 826.916 277.871 862.022C282.601 897.128 283.973 935.29 295.959 979.875C297.889 987.054 307.771 1030.42 329.353 1025.01C350.935 1019.61 349.389 979.595 349.389 960.371C349.389 941.148 349.287 916.115 346.98 881.211C344.673 846.307 340.188 812.403 335.686 757.206" stroke="#F6F6F6" stroke-width="0.00370411" stroke-miterlimit="10" stroke-linecap="round" stroke-linejoin="round"/>
<path fill-rule="evenodd" clip-rule="evenodd" d="M580.43 366.472C582.378 320.435 584.165 344.67 588.124 282.893C592.076 221.116 619.334 153.519 663.09 168.338C706.846 183.158 733.426 230.289 735.542 280.623C741.602 424.345 688.762 507.267 586.714 594.445C585.655 595.349 584.604 596.247 583.561 597.14C570.586 608.239 558.728 618.478 547.76 627.978C474.528 691.407 440.907 721.926 378.603 755.962C321.094 787.377 174.711 814.675 173.597 826.839C172.375 840.191 358.676 807.293 416.458 776.633C441.906 763.13 495.033 726.642 550.479 680.805C562.983 670.468 575.605 659.655 588.053 648.523C645.74 596.941 699.711 538.508 721.026 488.784C767.338 380.749 764.601 392.514 770.04 325.184C775.479 257.855 744.262 149.165 647.729 139.16C551.196 129.155 545.108 425.534 544.089 503.983C543.741 530.851 545.332 577.171 547.76 627.978C547.868 630.242 547.978 632.514 548.089 634.794C548.827 649.926 549.633 665.392 550.479 680.805C554.996 763.142 560.645 843.974 563.045 864.336C567.471 901.98 580.416 1045.77 606.326 1046.28C632.229 1046.8 610.362 915.185 608.546 860.68C607.104 817.361 594.378 708.797 588.053 648.523C586.419 632.949 585.212 620.599 584.738 613.432C584.37 607.868 583.974 602.471 583.561 597.14C581.383 569.026 578.762 542.739 577.7 503.414C576.436 456.632 578.482 412.51 580.43 366.472Z" fill="#F6F6F6"/>
<path d="M583.561 597.14C570.586 608.239 558.728 618.478 547.76 627.978C547.868 630.242 547.978 632.514 548.089 634.794C548.827 649.926 549.633 665.392 550.479 680.805C562.983 670.468 575.605 659.655 588.053 648.523C586.419 632.949 585.212 620.599 584.738 613.432C584.37 607.868 583.974 602.471 583.561 597.14Z" fill="#F6F6F6"/>
<path d="M583.561 597.14C570.586 608.239 558.728 618.478 547.76 627.978M583.561 597.14C583.974 602.471 584.37 607.868 584.738 613.432C585.212 620.599 586.419 632.949 588.053 648.523M583.561 597.14C581.383 569.026 578.762 542.739 577.7 503.414C576.436 456.632 578.482 412.51 580.43 366.472C582.378 320.435 584.165 344.67 588.124 282.893C592.076 221.116 619.334 153.519 663.09 168.338C706.846 183.158 733.426 230.289 735.542 280.623C741.602 424.345 688.762 507.267 586.714 594.445C585.655 595.349 584.604 596.247 583.561 597.14ZM547.76 627.978C547.868 630.242 547.978 632.514 548.089 634.794C548.827 649.926 549.633 665.392 550.479 680.805M547.76 627.978C545.332 577.171 543.741 530.851 544.089 503.983C545.108 425.534 551.196 129.155 647.729 139.16C744.262 149.165 775.479 257.855 770.04 325.184C764.601 392.514 767.338 380.749 721.026 488.784C699.711 538.508 645.74 596.941 588.053 648.523M547.76 627.978C474.528 691.407 440.907 721.926 378.603 755.962C321.094 787.377 174.711 814.675 173.597 826.839C172.375 840.191 358.676 807.293 416.458 776.633C441.906 763.13 495.033 726.642 550.479 680.805M550.479 680.805C562.983 670.468 575.605 659.655 588.053 648.523M550.479 680.805C554.996 763.142 560.645 843.974 563.045 864.336C567.471 901.98 580.416 1045.77 606.326 1046.28C632.229 1046.8 610.362 915.185 608.546 860.68C607.104 817.361 594.378 708.797 588.053 648.523" stroke="#F6F6F6" stroke-width="0.00370411" stroke-miterlimit="10" stroke-linecap="round" stroke-linejoin="round"/>
</g>
<defs>
<filter id="filter0_d_728_6379" x="-7" y="-7" width="1220" height="1220" filterUnits="userSpaceOnUse" color-interpolation-filters="sRGB">
<feFlood flood-opacity="0" result="BackgroundImageFix"/>
<feColorMatrix in="SourceAlpha" type="matrix" values="0 0 0 0 0 0 0 0 0 0 0 0 0 0 0 0 0 0 127 0" result="hardAlpha"/>
<feOffset dx="3" dy="3"/>
<feGaussianBlur stdDeviation="5"/>
<feComposite in2="hardAlpha" operator="out"/>
<feColorMatrix type="matrix" values="0 0 0 0 0 0 0 0 0 0 0 0 0 0 0 0 0 0 0.25 0"/>
<feBlend mode="normal" in2="BackgroundImageFix" result="effect1_dropShadow_728_6379"/>
<feBlend mode="normal" in="SourceGraphic" in2="effect1_dropShadow_728_6379" result="shape"/>
</filter>
</defs>
</svg>
