<svg width="160" height="160" viewBox="0 0 160 160" fill="none" xmlns="http://www.w3.org/2000/svg">
<rect width="160" height="160" rx="35" fill="#B2E3D9"/>
<mask id="path-2-outside-1_1010_11076" maskUnits="userSpaceOnUse" x="72.7436" y="63.1584" width="59.6184" height="56.6969" fill="black">
<rect fill="white" x="72.7436" y="63.1584" width="59.6184" height="56.6969"/>
<path d="M85.3395 71.5292C75.9246 83.3262 91.6494 101.152 97.6606 110.915C107.736 105.947 130.16 99.4907 128.19 84.3005C124.676 68.7815 107.436 75.4798 106.777 77.8688C107.436 75.4798 96.2314 60.3037 85.3395 71.5292Z"/>
</mask>
<path d="M85.3395 71.5292C75.9246 83.3262 91.6494 101.152 97.6606 110.915C107.736 105.947 130.16 99.4907 128.19 84.3005C124.676 68.7815 107.436 75.4798 106.777 77.8688C107.436 75.4798 96.2314 60.3037 85.3395 71.5292Z" fill="#141414"/>
<path d="M97.6606 110.915L96.8188 111.436L97.301 112.219L98.1092 111.821L97.6606 110.915ZM85.3395 71.5292L84.6236 70.8189L84.5907 70.8528L84.5612 70.8897L85.3395 71.5292ZM106.777 77.8688L105.819 77.5832L107.736 78.1544L106.777 77.8688ZM128.19 84.3005L129.176 84.1869L129.17 84.1393L129.159 84.0924L128.19 84.3005ZM98.5025 110.395C96.9859 107.932 94.8401 104.934 92.6948 101.746C90.5293 98.5278 88.3261 95.0623 86.6049 91.5512C83.1328 84.4683 81.7983 77.5811 86.1178 72.1687L84.5612 70.8897C79.4658 77.2743 81.2863 85.1987 84.8256 92.4188C86.6102 96.0592 88.8768 99.6181 91.0562 102.857C93.2557 106.126 95.3297 109.017 96.8188 111.436L98.5025 110.395ZM86.0554 72.2396C88.6355 69.5805 91.1549 68.5577 93.4394 68.4524C95.744 68.3462 97.9384 69.1683 99.8571 70.4329C101.777 71.6985 103.368 73.3742 104.434 74.87C104.967 75.6179 105.351 76.2975 105.58 76.8338C105.694 77.1027 105.76 77.3141 105.791 77.4657C105.825 77.6346 105.8 77.6527 105.819 77.5831L107.736 78.1544C107.837 77.7862 107.802 77.4058 107.739 77.0954C107.673 76.7677 107.555 76.4191 107.405 76.0663C107.104 75.3593 106.636 74.549 106.041 73.7136C104.851 72.0427 103.083 70.1781 100.923 68.7542C98.7613 67.3294 96.1535 66.3129 93.3144 66.4437C90.4552 66.5754 87.4894 67.8652 84.6236 70.8189L86.0554 72.2396ZM98.1092 111.821C100.605 110.59 103.838 109.28 107.37 107.719C110.869 106.173 114.606 104.403 117.975 102.299C124.658 98.1254 130.242 92.4079 129.176 84.1869L127.204 84.4142C128.107 91.3833 123.465 96.4889 116.909 100.583C113.659 102.613 110.024 104.338 106.547 105.874C103.102 107.397 99.754 108.757 97.2121 110.01L98.1092 111.821ZM129.159 84.0924C128.235 80.0091 126.377 77.2818 124.019 75.5952C121.679 73.9205 118.949 73.3461 116.389 73.3637C113.831 73.3814 111.382 73.9892 109.52 74.7506C108.59 75.1312 107.78 75.5608 107.164 75.9947C106.857 76.2112 106.579 76.4419 106.356 76.6832C106.144 76.9118 105.921 77.2149 105.819 77.5832L107.736 78.1544C107.717 78.224 107.705 78.1948 107.82 78.0704C107.923 77.9588 108.087 77.8158 108.321 77.6508C108.788 77.3217 109.46 76.9573 110.294 76.6165C111.96 75.9349 114.164 75.3902 116.437 75.3745C118.709 75.3589 120.989 75.8704 122.889 77.2299C124.773 78.5774 126.388 80.8324 127.221 84.5086L129.159 84.0924Z" fill="#141414" mask="url(#path-2-outside-1_1010_11076)"/>
<mask id="path-4-outside-2_1010_11076" maskUnits="userSpaceOnUse" x="21.6201" y="29.2263" width="106.568" height="102.54" fill="black">
<rect fill="white" x="21.6201" y="29.2263" width="106.568" height="102.54"/>
<path d="M33.6486 68.8966C30.3041 93.8319 67.4495 104.3 84.129 112.396C94.1463 96.3431 120.31 67.006 104.761 47.7019C86.7604 29.3436 68.1037 54.3075 69.1841 58.2237C68.1038 54.3075 39.5547 43.413 33.6486 68.8966Z"/>
</mask>
<path d="M84.129 112.396L81.9136 116.935L85.9173 118.879L88.3218 115.025L84.129 112.396ZM33.6486 68.8966L28.808 67.8308L28.7533 68.0667L28.7211 68.3063L33.6486 68.8966ZM69.1841 58.2237L64.3924 59.6518L73.9758 56.7956L69.1841 58.2237ZM104.761 47.7019L108.639 44.4872L108.49 44.3017L108.323 44.1317L104.761 47.7019ZM86.3443 107.857C82.0595 105.778 76.3227 103.481 70.7647 101.066C65.0448 98.5811 59.1968 95.8437 54.0205 92.6557C43.3736 86.0984 37.3291 78.784 38.5761 69.487L28.7211 68.3063C26.6236 83.9446 37.4795 94.3319 48.7391 101.267C54.5159 104.824 60.8727 107.781 66.7042 110.314C72.6975 112.918 77.8587 114.967 81.9136 116.935L86.3443 107.857ZM38.4893 69.9625C39.7279 64.6183 42.0035 61.6909 44.3505 60.0251C46.7828 58.2988 49.8287 57.5509 53.1227 57.5623C56.4237 57.5737 59.6677 58.3537 62.1003 59.3314C63.3176 59.8207 64.2009 60.3072 64.7226 60.6701C64.9866 60.8537 65.0635 60.9404 65.0299 60.9045C65.0091 60.8822 64.9211 60.7861 64.8105 60.6126C64.7041 60.4458 64.5223 60.1225 64.3924 59.6518L73.9758 56.7956C73.6026 55.4428 72.827 54.4807 72.3139 53.9319C71.7405 53.3186 71.0875 52.7946 70.456 52.3553C69.1865 51.4723 67.616 50.6643 65.9126 49.9797C62.5039 48.6097 58.0389 47.5245 53.3294 47.5082C48.6128 47.4919 43.3465 48.5538 38.731 51.8296C34.0302 55.166 30.5224 60.4332 28.808 67.8308L38.4893 69.9625ZM88.3218 115.025C90.757 111.123 94.0896 106.543 97.8446 101.033C101.498 95.6724 105.382 89.6641 108.467 83.4649C114.48 71.3822 118.391 56.5939 108.639 44.4872L100.884 50.9166C106.681 58.1141 105.284 67.6463 99.5981 79.0715C96.8337 84.6263 93.2699 90.1688 89.6863 95.4269C86.204 100.536 82.5096 105.643 79.9362 109.767L88.3218 115.025ZM108.323 44.1317C103.098 38.8025 97.4375 36.2678 91.75 36.0276C86.1657 35.7917 81.1582 37.7919 77.1666 40.4036C73.1811 43.0114 69.9478 46.3911 67.7555 49.4304C66.66 50.9493 65.7401 52.4995 65.1137 53.9475C64.802 54.6679 64.5154 55.472 64.3418 56.308C64.1866 57.056 64.0192 58.2991 64.3924 59.6518L73.9758 56.7955C74.1057 57.2662 74.1163 57.6406 74.1111 57.8406C74.1058 58.0487 74.0802 58.1786 74.0739 58.2089C74.0637 58.258 74.0847 58.1421 74.215 57.8409C74.4724 57.2458 74.9734 56.3467 75.7563 55.2613C77.3208 53.0922 79.6742 50.644 82.4678 48.8161C85.2555 46.9921 88.2198 45.9487 91.1627 46.073C94.0023 46.1929 97.4246 47.4221 101.2 51.272L108.323 44.1317Z" fill="#141414" mask="url(#path-4-outside-2_1010_11076)"/>
<path d="M54.4575 59.2506C54.5121 58.7536 54.5118 58.7536 54.5115 58.7535C54.5114 58.7535 54.511 58.7535 54.5107 58.7534C54.5102 58.7534 54.5095 58.7533 54.5087 58.7532C54.5072 58.7531 54.5052 58.7529 54.5028 58.7526C54.498 58.7521 54.4915 58.7515 54.4834 58.7508C54.4673 58.7493 54.4445 58.7473 54.4156 58.7452C54.3576 58.7409 54.2745 58.7359 54.1686 58.7323C53.9567 58.725 53.6527 58.7234 53.2742 58.7445C52.5176 58.7867 51.46 58.9202 50.2423 59.2844C47.8006 60.0145 44.7283 61.6686 42.1587 65.3385L42.9779 65.9121C45.402 62.4498 48.2742 60.9166 50.5288 60.2424C51.6592 59.9044 52.6376 59.7816 53.3299 59.7429C53.6759 59.7236 53.9497 59.7254 54.1344 59.7317C54.2267 59.7349 54.2967 59.7391 54.3422 59.7425C54.3649 59.7442 54.3815 59.7456 54.3917 59.7465C54.3968 59.747 54.4004 59.7474 54.4022 59.7476C54.4032 59.7476 54.4037 59.7477 54.4038 59.7477C54.4039 59.7477 54.4038 59.7477 54.4037 59.7477C54.4036 59.7477 54.4034 59.7477 54.4034 59.7477C54.4032 59.7476 54.4029 59.7476 54.4575 59.2506ZM42.1587 65.3385C39.5832 69.0171 39.0953 72.729 39.2519 75.5153C39.3302 76.9072 39.5691 78.0699 39.7893 78.887C39.8995 79.2959 40.0052 79.619 40.0842 79.8419C40.1238 79.9534 40.1566 80.04 40.1801 80.0997C40.1918 80.1296 40.2012 80.1528 40.2079 80.1691C40.2113 80.1772 40.2139 80.1837 40.2159 80.1883C40.2169 80.1906 40.2177 80.1925 40.2183 80.194C40.2186 80.1947 40.2189 80.1953 40.2191 80.1958C40.2192 80.1961 40.2193 80.1964 40.2194 80.1965C40.2195 80.1968 40.2196 80.197 40.6791 80C41.1387 79.803 41.1388 79.8032 41.1388 79.8034C41.1389 79.8034 41.1389 79.8035 41.1389 79.8035C41.1389 79.8036 41.1389 79.8036 41.1389 79.8034C41.1387 79.8031 41.1384 79.8023 41.1379 79.8012C41.1369 79.7988 41.1352 79.7947 41.1329 79.789C41.1281 79.7774 41.1207 79.7591 41.1109 79.7342C41.0913 79.6843 41.0624 79.6083 41.0268 79.5078C40.9555 79.3069 40.8577 79.0084 40.7549 78.6268C40.549 77.8631 40.324 76.7695 40.2503 75.4592C40.1032 72.8411 40.5598 69.3657 42.9779 65.9121L42.1587 65.3385Z" fill="black"/>
</svg>
